{
  "asset": {
    "version": "2.0",
    "generator": "THREE.GLTFExporter"
  },
  "scenes": [
    {
      "nodes": [
        1
      ]
    }
  ],
  "scene": 0,
  "nodes": [
    {
      "name": "abstract_monster_21",
      "mesh": 0
    },
    {
      "matrix": [
        0.009999999776482582,
        0,
        0,
        0,
        0,
        0.009999999776482582,
        0,
        0,
        0,
        0,
        0.009999999776482582,
        0,
        0,
        0,
        0,
        1
      ],
      "name": "RootNode0",
      "children": [
        0
      ]
    }
  ],
  "bufferViews": [
    {
      "buffer": 0,
      "byteOffset": 0,
      "byteLength": 192972,
      "target": 34962,
      "byteStride": 12
    },
    {
      "buffer": 0,
      "byteOffset": 192972,
      "byteLength": 192972,
      "target": 34962,
      "byteStride": 12
    },
    {
      "buffer": 0,
      "byteOffset": 385944,
      "byteLength": 128648,
      "target": 34962,
      "byteStride": 8
    },
    {
      "buffer": 0,
      "byteOffset": 514592,
      "byteLength": 128648,
      "target": 34962,
      "byteStride": 8
    },
    {
      "buffer": 0,
      "byteOffset": 643240,
      "byteLength": 176928,
      "target": 34963
    }
  ],
  "buffers": [
    {
      "byteLength": 820168,
      "uri": "data:application/octet-stream;base64,"
    }
  ],
  "accessors": [
    {
      "bufferView": 0,
      "componentType": 5126,
      "count": 16081,
      "max": [
        0.9998996257781982,
        0.9999963641166687,
        0.9999526739120483
      ],
      "min": [
        -0.9998996257781982,
        -0.9999918937683105,
        -0.9993212819099426
      ],
      "type": "VEC3"
    },
    {
      "bufferView": 1,
      "componentType": 5126,
      "count": 16081,
      "max": [
        4.236210823059082,
        6.3480939865112305,
        4.1157636642456055
      ],
      "min": [
        -4.236210823059082,
        -0.015016257762908936,
        -1.8142701387405396
      ],
      "type": "VEC3"
    },
    {
      "bufferView": 2,
      "componentType": 5126,
      "count": 16081,
      "max": [
        0.9921911954879761,
        0.9940497875213623
      ],
      "min": [
        0.00693674199283123,
        0.006818115711212158
      ],
      "type": "VEC2"
    },
    {
      "bufferView": 3,
      "componentType": 5126,
      "count": 16081,
      "max": [
        0.9921911954879761,
        0.9940497875213623
      ],
      "min": [
        0.00693674199283123,
        0.006818115711212158
      ],
      "type": "VEC2"
    },
    {
      "bufferView": 4,
      "componentType": 5123,
      "count": 88464,
      "max": [
        16080
      ],
      "min": [
        0
      ],
      "type": "SCALAR"
    }
  ],
  "materials": [],
  "meshes": [
    {
      "primitives": [
        {
          "mode": 4,
          "attributes": {
            "NORMAL": 0,
            "POSITION": 1,
            "TEXCOORD_0": 2,
            "TEXCOORD_1": 3
          },
          "indices": 4
        }
      ]
    }
  ]
}